<mxfile host="app.diagrams.net" modified="2022-05-09T14:35:12.826Z" agent="5.0 (Macintosh; Intel Mac OS X 10_15_7) AppleWebKit/537.36 (KHTML, like Gecko) Chrome/101.0.4951.54 Safari/537.36" etag="s6T9j-0nr_ita0S5xDy3" version="18.0.2" type="github">
  <diagram id="ysenOYL4D1VJgiL484O7" name="Page-1">
    <mxGraphModel dx="2728" dy="1057" grid="1" gridSize="10" guides="1" tooltips="1" connect="1" arrows="1" fold="1" page="1" pageScale="1" pageWidth="827" pageHeight="1169" math="0" shadow="0">
      <root>
        <mxCell id="0" />
        <mxCell id="1" parent="0" />
        <mxCell id="2x0MMhH2x-qjhTQLom_U-1" value="&lt;font style=&quot;font-size: 18px;&quot;&gt;The SEM for Healthcare Project&lt;/font&gt;" style="text;html=1;align=center;verticalAlign=middle;resizable=0;points=[];autosize=1;strokeColor=none;fillColor=none;fontStyle=1" vertex="1" parent="1">
          <mxGeometry x="-800" y="30" width="280" height="20" as="geometry" />
        </mxCell>
        <mxCell id="2x0MMhH2x-qjhTQLom_U-2" value="Community Interest" style="whiteSpace=wrap;html=1;fontSize=18;" vertex="1" parent="1">
          <mxGeometry x="-413" y="190" width="120" height="60" as="geometry" />
        </mxCell>
        <mxCell id="2x0MMhH2x-qjhTQLom_U-3" value="Trust in HAI" style="whiteSpace=wrap;html=1;fontSize=18;" vertex="1" parent="1">
          <mxGeometry x="40" y="360" width="120" height="60" as="geometry" />
        </mxCell>
        <mxCell id="2x0MMhH2x-qjhTQLom_U-4" value="Effort Expectancy" style="whiteSpace=wrap;html=1;fontSize=18;" vertex="1" parent="1">
          <mxGeometry x="-410" y="480" width="120" height="60" as="geometry" />
        </mxCell>
        <mxCell id="2x0MMhH2x-qjhTQLom_U-5" value="Perceived Content Credibility" style="whiteSpace=wrap;html=1;fontSize=18;" vertex="1" parent="1">
          <mxGeometry x="-410" y="650" width="120" height="60" as="geometry" />
        </mxCell>
        <mxCell id="2x0MMhH2x-qjhTQLom_U-6" value="Perceived Usefulness" style="whiteSpace=wrap;html=1;fontSize=18;" vertex="1" parent="1">
          <mxGeometry x="-220" y="555" width="120" height="60" as="geometry" />
        </mxCell>
        <mxCell id="2x0MMhH2x-qjhTQLom_U-8" value="Substitution Risk" style="whiteSpace=wrap;html=1;fontSize=18;" vertex="1" parent="1">
          <mxGeometry x="320" y="360" width="120" height="60" as="geometry" />
        </mxCell>
        <mxCell id="2x0MMhH2x-qjhTQLom_U-9" value="Relatively Service Quality" style="whiteSpace=wrap;html=1;fontSize=18;" vertex="1" parent="1">
          <mxGeometry x="250" y="555" width="120" height="60" as="geometry" />
        </mxCell>
        <mxCell id="2x0MMhH2x-qjhTQLom_U-11" value="Trust Stance in Tech" style="whiteSpace=wrap;html=1;fontSize=18;" vertex="1" parent="1">
          <mxGeometry x="-413" y="360" width="120" height="60" as="geometry" />
        </mxCell>
        <mxCell id="2x0MMhH2x-qjhTQLom_U-15" value="" style="endArrow=classic;html=1;rounded=0;fontSize=18;exitX=1;exitY=0.5;exitDx=0;exitDy=0;" edge="1" parent="1" source="2x0MMhH2x-qjhTQLom_U-4">
          <mxGeometry width="50" height="50" relative="1" as="geometry">
            <mxPoint x="-730" y="270" as="sourcePoint" />
            <mxPoint x="-220" y="585" as="targetPoint" />
          </mxGeometry>
        </mxCell>
        <mxCell id="2x0MMhH2x-qjhTQLom_U-50" value="H6" style="edgeLabel;html=1;align=center;verticalAlign=middle;resizable=0;points=[];fontSize=18;" vertex="1" connectable="0" parent="2x0MMhH2x-qjhTQLom_U-15">
          <mxGeometry x="-0.1306" y="-1" relative="1" as="geometry">
            <mxPoint x="1" as="offset" />
          </mxGeometry>
        </mxCell>
        <mxCell id="2x0MMhH2x-qjhTQLom_U-16" value="" style="endArrow=classic;html=1;rounded=0;fontSize=18;exitX=1;exitY=0.5;exitDx=0;exitDy=0;entryX=0;entryY=0.5;entryDx=0;entryDy=0;startArrow=none;" edge="1" parent="1" source="2x0MMhH2x-qjhTQLom_U-7" target="2x0MMhH2x-qjhTQLom_U-3">
          <mxGeometry width="50" height="50" relative="1" as="geometry">
            <mxPoint x="-410" y="270" as="sourcePoint" />
            <mxPoint x="-360" y="220" as="targetPoint" />
          </mxGeometry>
        </mxCell>
        <mxCell id="2x0MMhH2x-qjhTQLom_U-49" value="H4" style="edgeLabel;html=1;align=center;verticalAlign=middle;resizable=0;points=[];fontSize=18;" vertex="1" connectable="0" parent="2x0MMhH2x-qjhTQLom_U-16">
          <mxGeometry x="-0.3229" y="6" relative="1" as="geometry">
            <mxPoint as="offset" />
          </mxGeometry>
        </mxCell>
        <mxCell id="2x0MMhH2x-qjhTQLom_U-21" value="" style="endArrow=classic;html=1;rounded=0;fontSize=18;exitX=1;exitY=0.5;exitDx=0;exitDy=0;entryX=0;entryY=0.5;entryDx=0;entryDy=0;" edge="1" parent="1" source="2x0MMhH2x-qjhTQLom_U-11" target="2x0MMhH2x-qjhTQLom_U-3">
          <mxGeometry width="50" height="50" relative="1" as="geometry">
            <mxPoint x="-290" y="120" as="sourcePoint" />
            <mxPoint x="-160" y="280" as="targetPoint" />
            <Array as="points" />
          </mxGeometry>
        </mxCell>
        <mxCell id="2x0MMhH2x-qjhTQLom_U-48" value="H5" style="edgeLabel;html=1;align=center;verticalAlign=middle;resizable=0;points=[];fontSize=18;" vertex="1" connectable="0" parent="2x0MMhH2x-qjhTQLom_U-21">
          <mxGeometry x="-0.1612" y="-2" relative="1" as="geometry">
            <mxPoint as="offset" />
          </mxGeometry>
        </mxCell>
        <mxCell id="2x0MMhH2x-qjhTQLom_U-22" value="" style="endArrow=classic;html=1;rounded=0;fontSize=18;exitX=1;exitY=0.5;exitDx=0;exitDy=0;" edge="1" parent="1" source="2x0MMhH2x-qjhTQLom_U-5">
          <mxGeometry width="50" height="50" relative="1" as="geometry">
            <mxPoint x="-910" y="410" as="sourcePoint" />
            <mxPoint x="-220" y="585" as="targetPoint" />
          </mxGeometry>
        </mxCell>
        <mxCell id="2x0MMhH2x-qjhTQLom_U-51" value="H7" style="edgeLabel;html=1;align=center;verticalAlign=middle;resizable=0;points=[];fontSize=18;" vertex="1" connectable="0" parent="2x0MMhH2x-qjhTQLom_U-22">
          <mxGeometry x="0.0602" y="2" relative="1" as="geometry">
            <mxPoint as="offset" />
          </mxGeometry>
        </mxCell>
        <mxCell id="2x0MMhH2x-qjhTQLom_U-23" value="" style="endArrow=classic;html=1;rounded=0;fontSize=18;exitX=0.5;exitY=0;exitDx=0;exitDy=0;entryX=0.5;entryY=1;entryDx=0;entryDy=0;" edge="1" parent="1" source="2x0MMhH2x-qjhTQLom_U-9" target="2x0MMhH2x-qjhTQLom_U-8">
          <mxGeometry width="50" height="50" relative="1" as="geometry">
            <mxPoint x="390" y="510" as="sourcePoint" />
            <mxPoint x="90" y="550" as="targetPoint" />
          </mxGeometry>
        </mxCell>
        <mxCell id="2x0MMhH2x-qjhTQLom_U-55" value="H11" style="edgeLabel;html=1;align=center;verticalAlign=middle;resizable=0;points=[];fontSize=18;" vertex="1" connectable="0" parent="2x0MMhH2x-qjhTQLom_U-23">
          <mxGeometry x="0.0782" y="1" relative="1" as="geometry">
            <mxPoint y="-1" as="offset" />
          </mxGeometry>
        </mxCell>
        <mxCell id="2x0MMhH2x-qjhTQLom_U-30" value="" style="endArrow=none;html=1;rounded=0;fontSize=18;exitX=1;exitY=0.5;exitDx=0;exitDy=0;startArrow=none;" edge="1" parent="1" source="2x0MMhH2x-qjhTQLom_U-7">
          <mxGeometry width="50" height="50" relative="1" as="geometry">
            <mxPoint x="-145" y="300" as="sourcePoint" />
            <mxPoint x="-200" y="300" as="targetPoint" />
          </mxGeometry>
        </mxCell>
        <mxCell id="2x0MMhH2x-qjhTQLom_U-7" value="Perceived Risk" style="whiteSpace=wrap;html=1;fontSize=18;" vertex="1" parent="1">
          <mxGeometry x="-210" y="270" width="120" height="60" as="geometry" />
        </mxCell>
        <mxCell id="2x0MMhH2x-qjhTQLom_U-33" value="" style="endArrow=classic;html=1;rounded=0;fontSize=18;exitX=1;exitY=0.5;exitDx=0;exitDy=0;entryX=0;entryY=0.5;entryDx=0;entryDy=0;" edge="1" parent="1" source="2x0MMhH2x-qjhTQLom_U-2" target="2x0MMhH2x-qjhTQLom_U-7">
          <mxGeometry width="50" height="50" relative="1" as="geometry">
            <mxPoint x="50" y="210" as="sourcePoint" />
            <mxPoint x="280" y="280" as="targetPoint" />
            <Array as="points" />
          </mxGeometry>
        </mxCell>
        <mxCell id="2x0MMhH2x-qjhTQLom_U-45" value="H1" style="edgeLabel;html=1;align=center;verticalAlign=middle;resizable=0;points=[];fontSize=18;" vertex="1" connectable="0" parent="2x0MMhH2x-qjhTQLom_U-33">
          <mxGeometry x="-0.1824" y="-1" relative="1" as="geometry">
            <mxPoint y="1" as="offset" />
          </mxGeometry>
        </mxCell>
        <mxCell id="2x0MMhH2x-qjhTQLom_U-34" value="" style="endArrow=classic;html=1;rounded=0;fontSize=18;exitX=1;exitY=0.5;exitDx=0;exitDy=0;entryX=0;entryY=0.5;entryDx=0;entryDy=0;" edge="1" parent="1" source="2x0MMhH2x-qjhTQLom_U-2" target="2x0MMhH2x-qjhTQLom_U-3">
          <mxGeometry width="50" height="50" relative="1" as="geometry">
            <mxPoint x="-270" y="135" as="sourcePoint" />
            <mxPoint x="-200" y="310" as="targetPoint" />
            <Array as="points">
              <mxPoint x="-50" y="220" />
            </Array>
          </mxGeometry>
        </mxCell>
        <mxCell id="2x0MMhH2x-qjhTQLom_U-47" value="H3" style="edgeLabel;html=1;align=center;verticalAlign=middle;resizable=0;points=[];fontSize=18;" vertex="1" connectable="0" parent="2x0MMhH2x-qjhTQLom_U-34">
          <mxGeometry x="-0.0092" y="4" relative="1" as="geometry">
            <mxPoint as="offset" />
          </mxGeometry>
        </mxCell>
        <mxCell id="2x0MMhH2x-qjhTQLom_U-35" value="" style="endArrow=classic;html=1;rounded=0;fontSize=18;exitX=1;exitY=0.5;exitDx=0;exitDy=0;entryX=0;entryY=0.5;entryDx=0;entryDy=0;" edge="1" parent="1" source="2x0MMhH2x-qjhTQLom_U-11" target="2x0MMhH2x-qjhTQLom_U-7">
          <mxGeometry width="50" height="50" relative="1" as="geometry">
            <mxPoint x="-270" y="135" as="sourcePoint" />
            <mxPoint x="-200" y="310" as="targetPoint" />
            <Array as="points" />
          </mxGeometry>
        </mxCell>
        <mxCell id="2x0MMhH2x-qjhTQLom_U-46" value="H2" style="edgeLabel;html=1;align=center;verticalAlign=middle;resizable=0;points=[];fontSize=18;" vertex="1" connectable="0" parent="2x0MMhH2x-qjhTQLom_U-35">
          <mxGeometry x="0.0517" y="5" relative="1" as="geometry">
            <mxPoint y="-1" as="offset" />
          </mxGeometry>
        </mxCell>
        <mxCell id="2x0MMhH2x-qjhTQLom_U-39" value="" style="endArrow=classic;html=1;rounded=0;fontSize=18;exitX=1;exitY=0.5;exitDx=0;exitDy=0;entryX=0;entryY=0.5;entryDx=0;entryDy=0;" edge="1" parent="1" source="2x0MMhH2x-qjhTQLom_U-6" target="2x0MMhH2x-qjhTQLom_U-3">
          <mxGeometry width="50" height="50" relative="1" as="geometry">
            <mxPoint x="770" y="390" as="sourcePoint" />
            <mxPoint x="560" y="310" as="targetPoint" />
          </mxGeometry>
        </mxCell>
        <mxCell id="2x0MMhH2x-qjhTQLom_U-52" value="H8" style="edgeLabel;html=1;align=center;verticalAlign=middle;resizable=0;points=[];fontSize=18;" vertex="1" connectable="0" parent="2x0MMhH2x-qjhTQLom_U-39">
          <mxGeometry x="-0.0309" y="1" relative="1" as="geometry">
            <mxPoint y="-1" as="offset" />
          </mxGeometry>
        </mxCell>
        <mxCell id="2x0MMhH2x-qjhTQLom_U-41" value="" style="endArrow=classic;html=1;rounded=0;fontSize=18;exitX=1;exitY=0.5;exitDx=0;exitDy=0;entryX=0.5;entryY=1;entryDx=0;entryDy=0;" edge="1" parent="1" source="2x0MMhH2x-qjhTQLom_U-5" target="2x0MMhH2x-qjhTQLom_U-3">
          <mxGeometry width="50" height="50" relative="1" as="geometry">
            <mxPoint x="770" y="390" as="sourcePoint" />
            <mxPoint x="560" y="310" as="targetPoint" />
            <Array as="points">
              <mxPoint x="-20" y="680" />
            </Array>
          </mxGeometry>
        </mxCell>
        <mxCell id="2x0MMhH2x-qjhTQLom_U-53" value="H9" style="edgeLabel;html=1;align=center;verticalAlign=middle;resizable=0;points=[];fontSize=18;" vertex="1" connectable="0" parent="2x0MMhH2x-qjhTQLom_U-41">
          <mxGeometry x="-0.1828" y="5" relative="1" as="geometry">
            <mxPoint x="1" as="offset" />
          </mxGeometry>
        </mxCell>
        <mxCell id="2x0MMhH2x-qjhTQLom_U-42" value="" style="endArrow=classic;html=1;rounded=0;fontSize=18;exitX=1;exitY=0.5;exitDx=0;exitDy=0;entryX=0;entryY=0.5;entryDx=0;entryDy=0;" edge="1" parent="1" source="2x0MMhH2x-qjhTQLom_U-3" target="2x0MMhH2x-qjhTQLom_U-8">
          <mxGeometry width="50" height="50" relative="1" as="geometry">
            <mxPoint x="680" y="400" as="sourcePoint" />
            <mxPoint x="170" y="310" as="targetPoint" />
          </mxGeometry>
        </mxCell>
        <mxCell id="2x0MMhH2x-qjhTQLom_U-54" value="H10" style="edgeLabel;html=1;align=center;verticalAlign=middle;resizable=0;points=[];fontSize=18;" vertex="1" connectable="0" parent="2x0MMhH2x-qjhTQLom_U-42">
          <mxGeometry x="0.0333" y="4" relative="1" as="geometry">
            <mxPoint as="offset" />
          </mxGeometry>
        </mxCell>
      </root>
    </mxGraphModel>
  </diagram>
</mxfile>
